<svg xmlns="http://www.w3.org/2000/svg" xmlns:xlink="http://www.w3.org/1999/xlink" width="1080" zoomAndPan="magnify" viewBox="0 0 810 809.999993" height="1080" preserveAspectRatio="xMidYMid meet" version="1.0"><defs><clipPath id="07fbc32aca"><path d="M 150 78 L 571 78 L 571 649 L 150 649 Z M 150 78 " clip-rule="nonzero"/></clipPath><clipPath id="332eeda03e"><path d="M 130.71875 88.179688 L 654.480469 65.5625 L 679.300781 640.277344 L 155.539062 662.894531 Z M 130.71875 88.179688 " clip-rule="nonzero"/></clipPath><clipPath id="466c120e87"><path d="M 130.71875 88.179688 L 654.480469 65.5625 L 679.300781 640.277344 L 155.539062 662.894531 Z M 130.71875 88.179688 " clip-rule="nonzero"/></clipPath><clipPath id="17b2dbd42e"><path d="M 130.71875 88.179688 L 654.480469 65.5625 L 679.300781 640.277344 L 155.539062 662.894531 Z M 130.71875 88.179688 " clip-rule="nonzero"/></clipPath><clipPath id="71ed40ed59"><path d="M 394 146 L 673 146 L 673 650 L 394 650 Z M 394 146 " clip-rule="nonzero"/></clipPath><clipPath id="0310644a56"><path d="M 130.71875 88.179688 L 654.480469 65.5625 L 679.300781 640.277344 L 155.539062 662.894531 Z M 130.71875 88.179688 " clip-rule="nonzero"/></clipPath><clipPath id="c0627d7b30"><path d="M 130.71875 88.179688 L 654.480469 65.5625 L 679.300781 640.277344 L 155.539062 662.894531 Z M 130.71875 88.179688 " clip-rule="nonzero"/></clipPath><clipPath id="582b76e502"><path d="M 130.71875 88.179688 L 654.480469 65.5625 L 679.300781 640.277344 L 155.539062 662.894531 Z M 130.71875 88.179688 " clip-rule="nonzero"/></clipPath></defs><g clip-path="url(#07fbc32aca)"><g clip-path="url(#332eeda03e)"><g clip-path="url(#466c120e87)"><g clip-path="url(#17b2dbd42e)"><path fill="#458017" d="M 483.570312 622.21875 L 494.671875 613.660156 C 531.730469 591.210938 559.304688 551.199219 567.078125 508.5625 C 570.875 487.875 570.988281 455.042969 567.375 439.085938 C 564.847656 427.957031 561.046875 414.144531 560.214844 413.113281 C 559.777344 412.621094 558.84375 410.429688 558.058594 408.328125 C 545.378906 372.796875 497.195312 333.457031 443.355469 314.65625 C 440.761719 313.746094 434.863281 311.585938 430.28125 309.789062 C 418.714844 305.367188 403.589844 300.355469 387.316406 295.578125 C 379.746094 293.351562 372.40625 291.113281 371.035156 290.617188 C 369.667969 290.117188 363.449219 288.0625 357.234375 286.101562 C 350.972656 284.097656 343.570312 281.539062 340.738281 280.40625 C 337.902344 279.277344 334.503906 277.984375 333.183594 277.53125 C 311.417969 270.296875 297.1875 249.367188 301.644531 231.066406 C 309.65625 198.355469 376.765625 194.203125 431.828125 223.027344 C 435.105469 224.742188 439.144531 226.84375 440.804688 227.65625 C 442.464844 228.464844 448.289062 232.113281 453.785156 235.730469 C 475.390625 249.984375 469.335938 253.914062 517.644531 194.015625 C 553.960938 148.984375 553.710938 151.78125 523.644531 130.835938 C 489.367188 107.011719 437.203125 86.1875 400.890625 81.902344 C 396.875 81.425781 392.015625 80.707031 390.140625 80.324219 C 376.554688 77.566406 342.398438 78.023438 317.785156 81.21875 C 229.265625 92.796875 171.511719 141.449219 159.84375 214.25 C 157.398438 229.679688 159.351562 266.324219 163.460938 280.867188 C 172.453125 312.703125 185.363281 332.066406 213.65625 356.058594 C 214.285156 356.589844 215.960938 357.816406 217.398438 358.820312 C 218.835938 359.828125 222.519531 362.363281 225.585938 364.503906 C 256.460938 385.925781 289.425781 400.890625 329.027344 411.394531 C 340.582031 414.472656 359.105469 419.707031 369.878906 422.910156 C 407.042969 434.027344 425.609375 447.808594 429.035156 466.929688 C 435.007812 499.917969 410.644531 518.523438 360.523438 519.203125 C 315.644531 519.839844 281.789062 506.8125 245.402344 475 C 231.308594 462.652344 231.8125 462.445312 200.214844 495.292969 C 141.683594 556.140625 144.515625 550.773438 161.425781 568.152344 C 191.40625 598.941406 234.714844 624.328125 279.386719 637.257812 C 314.75 647.480469 350.828125 650.613281 391.066406 646.878906 C 391.898438 646.839844 392.777344 646.710938 393.609375 646.628906 L 483.566406 622.171875 M 428.558594 642.984375 L 438.191406 640.246094 C 451.3125 636.519531 462.1875 632.429688 473.832031 626.867188 L 483.613281 622.171875 " fill-opacity="1" fill-rule="evenodd"/></g></g></g></g><g clip-path="url(#71ed40ed59)"><g clip-path="url(#0310644a56)"><g clip-path="url(#c0627d7b30)"><g clip-path="url(#582b76e502)"><path fill="#458017" d="M 610.441406 381.59375 L 614.734375 375.558594 C 639.515625 340.824219 636.359375 279.527344 607.761719 241.015625 C 605.59375 238.136719 603.597656 234.925781 603.320312 233.917969 C 602.832031 232.21875 602.785156 232.222656 602.714844 233.851562 C 602.671875 236.035156 600.753906 235.652344 599.25 233.117188 C 598.648438 232.121094 596.007812 228.984375 593.421875 226.125 C 574.605469 205.484375 568.332031 183.886719 571 148.851562 C 571.261719 145.21875 568.851562 146.4375 563.546875 152.65625 C 558.644531 158.441406 547.382812 176.152344 546.074219 180.25 C 545.789062 181.191406 544.46875 183.941406 543.179688 186.410156 C 541.894531 188.882812 540.125 193.089844 539.222656 195.824219 C 538.320312 198.554688 537.105469 201.671875 536.503906 202.765625 C 535.902344 203.859375 534.949219 206.546875 534.390625 208.707031 C 533.835938 210.867188 532.773438 214.210938 532.019531 216.101562 C 531.265625 217.992188 530.367188 220.863281 530.066406 222.5 C 529.765625 224.136719 528.824219 228.125 528.078125 231.363281 C 519.894531 265.519531 521.707031 304.214844 533.238281 341.097656 C 536.359375 351.039062 543.421875 370.511719 544.359375 371.726562 C 544.753906 372.265625 545.988281 375.046875 547.039062 377.925781 C 551.867188 390.8125 573.671875 430.128906 583.90625 444.453125 C 585.191406 446.253906 588.402344 450.714844 591.019531 454.359375 C 597.441406 463.324219 600.445312 467.234375 607.597656 475.886719 L 613.671875 483.242188 L 614.3125 485.207031 L 614.925781 486.4375 L 623.894531 496.265625 C 653.332031 528.472656 661.21875 551.953125 653.734375 585.152344 C 651.203125 596.40625 650.191406 597.65625 646.738281 594.046875 L 644.015625 591.238281 L 646.71875 594.695312 C 650.160156 599.144531 650.132812 599.5625 646.113281 605.402344 C 636.144531 619.714844 632.273438 620.394531 531.140625 624.808594 L 467.78125 627.542969 L 458 632.238281 C 446.351562 637.804688 433.621094 638.679688 420.5 642.402344 L 394.878906 649.128906 L 520.058594 643.488281 C 598.339844 639.96875 627.984375 638.316406 629.753906 637.40625 C 631.074219 636.746094 634.5 635.390625 637.425781 634.378906 C 646.578125 631.199219 656.453125 622.277344 659.585938 614.199219 L 661.007812 610.515625 L 664.109375 612.472656 C 666.148438 613.746094 666.550781 613.726562 665.316406 612.421875 C 663.515625 610.5 663.507812 610.316406 665.25 606.574219 C 667.15625 602.402344 670.539062 590.371094 672.253906 581.660156 C 672.9375 578.195312 673.027344 570.527344 672.535156 560.242188 C 671.460938 537.488281 667.894531 529.097656 647.273438 500.039062 C 623.195312 466.160156 615.570312 454.96875 613.152344 452.75 C 610.734375 450.535156 610.734375 450.535156 610.734375 450.535156 C 610.734375 450.535156 610.734375 450.535156 607.863281 446.574219 C 607.839844 445.972656 605.136719 441.492188 601.910156 436.617188 C 598.679688 431.742188 594.355469 425.195312 592.320312 422.078125 C 584.265625 409.796875 563.527344 371.546875 561.941406 366 C 561.5 364.390625 560.527344 362.253906 559.785156 361.214844 C 558.003906 358.644531 550.226562 335.578125 547.113281 323.6875 C 541.757812 302.929688 540.179688 267.429688 543.605469 244.667969 C 546.609375 224.898438 551.699219 200.902344 553.296875 199.160156 C 553.828125 198.582031 554.230469 197.078125 554.175781 195.875 C 554.046875 192.859375 556.742188 192.882812 557.660156 195.910156 C 558.042969 197.238281 558.078125 199.09375 557.699219 200.039062 C 553.695312 210.519531 553.554688 273.910156 557.476562 298.074219 C 562.019531 325.875 568.253906 345.527344 578.097656 362.699219 C 583.070312 371.402344 592.179688 384.425781 596.808594 389.519531 L 599.148438 392.066406 L 603.101562 387.902344 C 605.277344 385.625 607.039062 383.367188 607.015625 382.859375 C 606.996094 382.347656 607.398438 382.003906 607.953125 381.980469 " fill-opacity="1" fill-rule="evenodd"/></g></g></g></g></svg>